{
  "accessors": [
    {
      "bufferView": 2,
      "componentType": 5126,
      "count": 65532,
      "max": [
        6.538332462310791,
        -0.04774792119860649,
        4.061978340148926
      ],
      "min": [
        -6.45936918258667,
        -3.6875882148742676,
        -2.9403958320617676
      ],
      "type": "VEC3"
    },
    {
      "bufferView": 2,
      "byteOffset": 786384,
      "componentType": 5126,
      "count": 65532,
      "max": [
        0.9999316334724426,
        0.9924869537353516,
        0.9999616742134094
      ],
      "min": [
        -0.9999131560325623,
        -0.9999998211860657,
        -0.9998636245727539
      ],
      "type": "VEC3"
    },
    {
      "bufferView": 1,
      "componentType": 5126,
      "count": 65532,
      "max": [
        0.9995890855789185,
        0.9534910917282104
      ],
      "min": [
        0.0001220703125,
        0.0003049565711989999
      ],
      "type": "VEC2"
    },
    {
      "bufferView": 0,
      "componentType": 5125,
      "count": 298431,
      "type": "SCALAR"
    },
    {
      "bufferView": 2,
      "byteOffset": 1572768,
      "componentType": 5126,
      "count": 65532,
      "max": [
        6.4094085693359375,
        -0.051523610949516296,
        3.950119733810425
      ],
      "min": [
        -6.478933334350586,
        -3.828511953353882,
        -3.2954654693603516
      ],
      "type": "VEC3"
    },
    {
      "bufferView": 2,
      "byteOffset": 2359152,
      "componentType": 5126,
      "count": 65532,
      "max": [
        0.9999943375587463,
        0.9992814660072327,
        0.9998798966407776
      ],
      "min": [
        -0.9998967051506042,
        -0.9999998211860657,
        -0.9999725222587585
      ],
      "type": "VEC3"
    },
    {
      "bufferView": 1,
      "byteOffset": 524256,
      "componentType": 5126,
      "count": 65532,
      "max": [
        0.9998417496681213,
        0.9915770292282104
      ],
      "min": [
        0.0030517578125,
        0.00031413568649441004
      ],
      "type": "VEC2"
    },
    {
      "bufferView": 0,
      "byteOffset": 1193724,
      "componentType": 5125,
      "count": 294654,
      "type": "SCALAR"
    },
    {
      "bufferView": 2,
      "byteOffset": 3145536,
      "componentType": 5126,
      "count": 65532,
      "max": [
        6.5200042724609375,
        -0.06345269083976746,
        4.032203197479248
      ],
      "min": [
        -6.571002960205078,
        -3.8328518867492676,
        -3.2805330753326416
      ],
      "type": "VEC3"
    },
    {
      "bufferView": 2,
      "byteOffset": 3931920,
      "componentType": 5126,
      "count": 65532,
      "max": [
        0.999971866607666,
        0.9995110034942627,
        0.9999955296516418
      ],
      "min": [
        -0.9997087121009827,
        -1.0,
        -0.9998729228973389
      ],
      "type": "VEC3"
    },
    {
      "bufferView": 1,
      "byteOffset": 1048512,
      "componentType": 5126,
      "count": 65532,
      "max": [
        0.9997972846031189,
        0.9925535917282104
      ],
      "min": [
        0.0001220703125,
        0.0002546502510085702
      ],
      "type": "VEC2"
    },
    {
      "bufferView": 0,
      "byteOffset": 2372340,
      "componentType": 5125,
      "count": 288321,
      "type": "SCALAR"
    },
    {
      "bufferView": 2,
      "byteOffset": 4718304,
      "componentType": 5126,
      "count": 65532,
      "max": [
        6.5106048583984375,
        -0.05957252159714699,
        3.91059947013855
      ],
      "min": [
        -6.207164287567139,
        -3.822303533554077,
        -3.292044162750244
      ],
      "type": "VEC3"
    },
    {
      "bufferView": 2,
      "byteOffset": 5504688,
      "componentType": 5126,
      "count": 65532,
      "max": [
        0.9999309182167053,
        0.9999698996543884,
        0.9999621510505676
      ],
      "min": [
        -0.9999507069587708,
        -0.9999996423721313,
        -0.9998342394828796
      ],
      "type": "VEC3"
    },
    {
      "bufferView": 1,
      "byteOffset": 1572768,
      "componentType": 5126,
      "count": 65532,
      "max": [
        0.9998567700386047,
        0.9915770292282104
      ],
      "min": [
        0.0001220703125,
        0.0004205895820632577
      ],
      "type": "VEC2"
    },
    {
      "bufferView": 0,
      "byteOffset": 3525624,
      "componentType": 5125,
      "count": 272082,
      "type": "SCALAR"
    },
    {
      "bufferView": 2,
      "byteOffset": 6291072,
      "componentType": 5126,
      "count": 65532,
      "max": [
        6.249330997467041,
        -0.06123340129852295,
        4.021389484405518
      ],
      "min": [
        -6.601088523864746,
        -3.7761008739471436,
        -3.1748085021972656
      ],
      "type": "VEC3"
    },
    {
      "bufferView": 2,
      "byteOffset": 7077456,
      "componentType": 5126,
      "count": 65532,
      "max": [
        0.9999262690544128,
        0.9999972581863403,
        0.9999837875366211
      ],
      "min": [
        -0.9999902844429016,
        -0.9999994039535522,
        -0.9999620914459229
      ],
      "type": "VEC3"
    },
    {
      "bufferView": 1,
      "byteOffset": 2097024,
      "componentType": 5126,
      "count": 65532,
      "max": [
        0.9998531937599182,
        0.9940184354782104
      ],
      "min": [
        0.0001220703125,
        0.0001281691947951913
      ],
      "type": "VEC2"
    },
    {
      "bufferView": 0,
      "byteOffset": 4613952,
      "componentType": 5125,
      "count": 232704,
      "type": "SCALAR"
    },
    {
      "bufferView": 2,
      "byteOffset": 7863840,
      "componentType": 5126,
      "count": 65532,
      "max": [
        6.3912482261657715,
        -0.06261633336544037,
        3.6848864555358887
      ],
      "min": [
        -6.5330610275268555,
        -3.8218631744384766,
        -3.273189067840576
      ],
      "type": "VEC3"
    },
    {
      "bufferView": 2,
      "byteOffset": 8650224,
      "componentType": 5126,
      "count": 65532,
      "max": [
        0.9999648928642273,
        0.9999527335166931,
        0.9999963641166687
      ],
      "min": [
        -0.9999309182167053,
        -0.9999998211860657,
        -0.9999993443489075
      ],
      "type": "VEC3"
    },
    {
      "bufferView": 1,
      "byteOffset": 2621280,
      "componentType": 5126,
      "count": 65532,
      "max": [
        0.9998423457145691,
        0.9949949979782104
      ],
      "min": [
        0.0001220703125,
        0.00013097061309963465
      ],
      "type": "VEC2"
    },
    {
      "bufferView": 0,
      "byteOffset": 5544768,
      "componentType": 5125,
      "count": 219045,
      "type": "SCALAR"
    },
    {
      "bufferView": 2,
      "byteOffset": 9436608,
      "componentType": 5126,
      "count": 65532,
      "max": [
        6.378864765167236,
        -0.06137964874505997,
        3.9623942375183105
      ],
      "min": [
        -6.6082563400268555,
        -3.824272632598877,
        -3.2620766162872314
      ],
      "type": "VEC3"
    },
    {
      "bufferView": 2,
      "byteOffset": 10222992,
      "componentType": 5126,
      "count": 65532,
      "max": [
        0.9999951720237732,
        0.9998465776443481,
        0.9999386072158813
      ],
      "min": [
        -0.9998376965522766,
        -0.9999996423721313,
        -0.9998713731765747
      ],
      "type": "VEC3"
    },
    {
      "bufferView": 1,
      "byteOffset": 3145536,
      "componentType": 5126,
      "count": 65532,
      "max": [
        0.9998673796653748,
        0.9949949979782104
      ],
      "min": [
        0.0001220703125,
        0.00012822879943996668
      ],
      "type": "VEC2"
    },
    {
      "bufferView": 0,
      "byteOffset": 6420948,
      "componentType": 5125,
      "count": 198774,
      "type": "SCALAR"
    },
    {
      "bufferView": 2,
      "byteOffset": 11009376,
      "componentType": 5126,
      "count": 65532,
      "max": [
        6.513089656829834,
        -0.06069951131939888,
        3.8316073417663574
      ],
      "min": [
        -6.539152145385742,
        -3.822303533554077,
        -3.2253026962280273
      ],
      "type": "VEC3"
    },
    {
      "bufferView": 2,
      "byteOffset": 11795760,
      "componentType": 5126,
      "count": 65532,
      "max": [
        0.9999493360519409,
        0.9999886751174927,
        0.9999955296516418
      ],
      "min": [
        -0.9999816417694092,
        -0.9999996423721313,
        -0.999991238117218
      ],
      "type": "VEC3"
    },
    {
      "bufferView": 1,
      "byteOffset": 3669792,
      "componentType": 5126,
      "count": 65532,
      "max": [
        0.9998663067817688,
        0.9954832792282104
      ],
      "min": [
        0.0001220703125,
        0.00012447370681911707
      ],
      "type": "VEC2"
    },
    {
      "bufferView": 0,
      "byteOffset": 7216044,
      "componentType": 5125,
      "count": 187620,
      "type": "SCALAR"
    },
    {
      "bufferView": 2,
      "byteOffset": 12582144,
      "componentType": 5126,
      "count": 65532,
      "max": [
        6.4674177169799805,
        -0.04774792119860649,
        3.9579873085021973
      ],
      "min": [
        -6.601088523864746,
        -3.8116908073425293,
        -3.3350534439086914
      ],
      "type": "VEC3"
    },
    {
      "bufferView": 2,
      "byteOffset": 13368528,
      "componentType": 5126,
      "count": 65532,
      "max": [
        0.999968409538269,
        0.9998720288276672,
        0.9998494982719421
      ],
      "min": [
        -0.9999927282333374,
        -0.9999987483024597,
        -0.9999160170555115
      ],
      "type": "VEC3"
    },
    {
      "bufferView": 1,
      "byteOffset": 4194048,
      "componentType": 5126,
      "count": 65532,
      "max": [
        0.9998732209205627,
        0.9935301542282104
      ],
      "min": [
        0.0001220703125,
        0.000123698846437037
      ],
      "type": "VEC2"
    },
    {
      "bufferView": 0,
      "byteOffset": 7966524,
      "componentType": 5125,
      "count": 177234,
      "type": "SCALAR"
    },
    {
      "bufferView": 2,
      "byteOffset": 14154912,
      "componentType": 5126,
      "count": 65532,
      "max": [
        6.513949394226074,
        -0.04839877039194107,
        3.9003255367279053
      ],
      "min": [
        -6.56241512298584,
        -3.826768636703491,
        -3.272686004638672
      ],
      "type": "VEC3"
    },
    {
      "bufferView": 2,
      "byteOffset": 14941296,
      "componentType": 5126,
      "count": 65532,
      "max": [
        0.9999147653579712,
        0.9999747276306152,
        0.9999363422393799
      ],
      "min": [
        -0.9998376965522766,
        -0.9999993443489075,
        -0.9999247789382935
      ],
      "type": "VEC3"
    },
    {
      "bufferView": 1,
      "byteOffset": 4718304,
      "componentType": 5126,
      "count": 65532,
      "max": [
        0.9998551607131958,
        0.9945067167282104
      ],
      "min": [
        0.0001220703125,
        0.00012411607895046473
      ],
      "type": "VEC2"
    },
    {
      "bufferView": 0,
      "byteOffset": 8675460,
      "componentType": 5125,
      "count": 149562,
      "type": "SCALAR"
    },
    {
      "bufferView": 2,
      "byteOffset": 15727680,
      "componentType": 5126,
      "count": 65532,
      "max": [
        6.472575664520264,
        -0.061560798436403275,
        4.063586235046387
      ],
      "min": [
        -6.5242509841918945,
        -3.832305908203125,
        -3.2904655933380127
      ],
      "type": "VEC3"
    },
    {
      "bufferView": 2,
      "byteOffset": 16514064,
      "componentType": 5126,
      "count": 65532,
      "max": [
        0.9999609589576721,
        0.9999068379402161,
        0.9999976754188538
      ],
      "min": [
        -0.9998733401298523,
        -0.9999994039535522,
        -0.9999694228172302
      ],
      "type": "VEC3"
    },
    {
      "bufferView": 1,
      "byteOffset": 5242560,
      "componentType": 5126,
      "count": 65532,
      "max": [
        0.9998655915260315,
        0.9945067167282104
      ],
      "min": [
        0.0001220703125,
        0.00012274517212063074
      ],
      "type": "VEC2"
    },
    {
      "bufferView": 0,
      "byteOffset": 9273708,
      "componentType": 5125,
      "count": 109434,
      "type": "SCALAR"
    },
    {
      "bufferView": 2,
      "byteOffset": 17300448,
      "componentType": 5126,
      "count": 35988,
      "max": [
        6.46878719329834,
        -0.06266514956951141,
        4.04401159286499
      ],
      "min": [
        -6.478830337524414,
        -3.8150715827941895,
        -3.2539045810699463
      ],
      "type": "VEC3"
    },
    {
      "bufferView": 2,
      "byteOffset": 17732304,
      "componentType": 5126,
      "count": 35988,
      "max": [
        0.9999186992645264,
        0.9999068379402161,
        0.9999611377716064
      ],
      "min": [
        -0.9998757243156433,
        -0.9999977946281433,
        -0.9996668696403503
      ],
      "type": "VEC3"
    },
    {
      "bufferView": 1,
      "byteOffset": 5766816,
      "componentType": 5126,
      "count": 35988,
      "max": [
        0.999852180480957,
        0.9949949979782104
      ],
      "min": [
        0.0001220703125,
        0.00012971891555935144
      ],
      "type": "VEC2"
    },
    {
      "bufferView": 0,
      "byteOffset": 9711444,
      "componentType": 5125,
      "count": 47919,
      "type": "SCALAR"
    }
  ],
  "asset": {
    "extras": {
      "author": "Global Digital Heritage (https://sketchfab.com/GlobalDigitalHeritage)",
      "license": "CC-BY-NC-4.0 (http://creativecommons.org/licenses/by-nc/4.0/)",
      "source": "https://sketchfab.com/3d-models/baldoon-castle-gate-wigtown-galloway-scotland-8afded0940294e2e97b101b436716374",
      "title": "Baldoon Castle Gate, Wigtown, Galloway, Scotland"
    },
    "generator": "Sketchfab-15.61.0",
    "version": "2.0"
  },
  "bufferViews": [
    {
      "buffer": 0,
      "byteLength": 9903120,
      "name": "floatBufferViews",
      "target": 34963
    },
    {
      "buffer": 0,
      "byteLength": 6054720,
      "byteOffset": 9903120,
      "byteStride": 8,
      "name": "floatBufferViews",
      "target": 34962
    },
    {
      "buffer": 0,
      "byteLength": 18164160,
      "byteOffset": 15957840,
      "byteStride": 12,
      "name": "floatBufferViews",
      "target": 34962
    }
  ],
  "buffers": [
    {
      "byteLength": 34122000,
      "uri": "scene.bin"
    }
  ],
  "extensionsUsed": [
    "KHR_materials_unlit"
  ],
  "images": [
    {
      "uri": "textures/Baldoon_Gate_Model_LP_u1_v1_baseColor.jpeg"
    }
  ],
  "materials": [
    {
      "doubleSided": true,
      "extensions": {
        "KHR_materials_unlit": {}
      },
      "name": "Baldoon_Gate_Model_LP_u1_v1",
      "pbrMetallicRoughness": {
        "baseColorTexture": {
          "index": 0
        },
        "metallicFactor": 0.0
      }
    }
  ],
  "meshes": [
    {
      "name": "Object_0",
      "primitives": [
        {
          "attributes": {
            "NORMAL": 1,
            "POSITION": 0,
            "TEXCOORD_0": 2
          },
          "indices": 3,
          "material": 0,
          "mode": 4
        }
      ]
    },
    {
      "name": "Object_1",
      "primitives": [
        {
          "attributes": {
            "NORMAL": 5,
            "POSITION": 4,
            "TEXCOORD_0": 6
          },
          "indices": 7,
          "material": 0,
          "mode": 4
        }
      ]
    },
    {
      "name": "Object_2",
      "primitives": [
        {
          "attributes": {
            "NORMAL": 9,
            "POSITION": 8,
            "TEXCOORD_0": 10
          },
          "indices": 11,
          "material": 0,
          "mode": 4
        }
      ]
    },
    {
      "name": "Object_3",
      "primitives": [
        {
          "attributes": {
            "NORMAL": 13,
            "POSITION": 12,
            "TEXCOORD_0": 14
          },
          "indices": 15,
          "material": 0,
          "mode": 4
        }
      ]
    },
    {
      "name": "Object_4",
      "primitives": [
        {
          "attributes": {
            "NORMAL": 17,
            "POSITION": 16,
            "TEXCOORD_0": 18
          },
          "indices": 19,
          "material": 0,
          "mode": 4
        }
      ]
    },
    {
      "name": "Object_5",
      "primitives": [
        {
          "attributes": {
            "NORMAL": 21,
            "POSITION": 20,
            "TEXCOORD_0": 22
          },
          "indices": 23,
          "material": 0,
          "mode": 4
        }
      ]
    },
    {
      "name": "Object_6",
      "primitives": [
        {
          "attributes": {
            "NORMAL": 25,
            "POSITION": 24,
            "TEXCOORD_0": 26
          },
          "indices": 27,
          "material": 0,
          "mode": 4
        }
      ]
    },
    {
      "name": "Object_7",
      "primitives": [
        {
          "attributes": {
            "NORMAL": 29,
            "POSITION": 28,
            "TEXCOORD_0": 30
          },
          "indices": 31,
          "material": 0,
          "mode": 4
        }
      ]
    },
    {
      "name": "Object_8",
      "primitives": [
        {
          "attributes": {
            "NORMAL": 33,
            "POSITION": 32,
            "TEXCOORD_0": 34
          },
          "indices": 35,
          "material": 0,
          "mode": 4
        }
      ]
    },
    {
      "name": "Object_9",
      "primitives": [
        {
          "attributes": {
            "NORMAL": 37,
            "POSITION": 36,
            "TEXCOORD_0": 38
          },
          "indices": 39,
          "material": 0,
          "mode": 4
        }
      ]
    },
    {
      "name": "Object_10",
      "primitives": [
        {
          "attributes": {
            "NORMAL": 41,
            "POSITION": 40,
            "TEXCOORD_0": 42
          },
          "indices": 43,
          "material": 0,
          "mode": 4
        }
      ]
    },
    {
      "name": "Object_11",
      "primitives": [
        {
          "attributes": {
            "NORMAL": 45,
            "POSITION": 44,
            "TEXCOORD_0": 46
          },
          "indices": 47,
          "material": 0,
          "mode": 4
        }
      ]
    }
  ],
  "nodes": [
    {
      "children": [
        1
      ],
      "matrix": [
        0.9300298094749451,
        0.017683902755379597,
        0.3670583665370941,
        0.0,
        0.018824387341737747,
        -0.9998226761817932,
        0.0004727472260126487,
        0.0,
        0.36700165271759033,
        0.006469979882240502,
        -0.9301977753639221,
        0.0,
        0.0,
        0.0,
        0.0,
        1.0
      ],
      "name": "Sketchfab_model"
    },
    {
      "children": [
        2,
        3,
        4,
        5,
        6,
        7,
        8,
        9,
        10,
        11,
        12,
        13
      ],
      "name": "Baldoon_Gate_Model_LP.obj.cleaner.materialmerger.gles"
    },
    {
      "mesh": 0,
      "name": "Object_2"
    },
    {
      "mesh": 1,
      "name": "Object_3"
    },
    {
      "mesh": 2,
      "name": "Object_4"
    },
    {
      "mesh": 3,
      "name": "Object_5"
    },
    {
      "mesh": 4,
      "name": "Object_6"
    },
    {
      "mesh": 5,
      "name": "Object_7"
    },
    {
      "mesh": 6,
      "name": "Object_8"
    },
    {
      "mesh": 7,
      "name": "Object_9"
    },
    {
      "mesh": 8,
      "name": "Object_10"
    },
    {
      "mesh": 9,
      "name": "Object_11"
    },
    {
      "mesh": 10,
      "name": "Object_12"
    },
    {
      "mesh": 11,
      "name": "Object_13"
    }
  ],
  "samplers": [
    {
      "magFilter": 9729,
      "minFilter": 9987,
      "wrapS": 10497,
      "wrapT": 10497
    }
  ],
  "scene": 0,
  "scenes": [
    {
      "name": "Sketchfab_Scene",
      "nodes": [
        0
      ]
    }
  ],
  "textures": [
    {
      "sampler": 0,
      "source": 0
    }
  ]
}
